# xmcd CD database file
#
# Track frame offsets:
#	150
#	53762
#	97545
#	153482
#	210660
#	260892
#
# Disc length: 4002 seconds
#
# Revision: 0
# Processed by: cddbd v1.5.2PL0 Copyright (c) Steve Scherf et al.
# Submitted via: CDex 1.70beta2
#
DISCID=480fa006
DTITLE=Lee Konitz - Live at the MANHATTEN JAZZ CLUB Paris Disneyland
DYEAR=1995
DGENRE=Jazz
TTITLE0=How deep is the ocean?
TTITLE1=Is the time now?
TTITLE2=Lover man
TTITLE3=Solar
TTITLE4=You don`t know what love is
TTITLE5=Body and soul
EXTD=YEAR: 1995
EXTT0=
EXTT1=
EXTT2=
EXTT3=
EXTT4=
EXTT5=
PLAYORDER=
